<svg xmlns="http://www.w3.org/2000/svg" width="1100" height="762" viewBox="0 0 1100 762">
<style>text { font-family: Arial, sans-serif; fill: #1f2937; } .title { font-size: 20px; font-weight: 700; } .label { font-size: 13px; } .score { font-size: 12px; }</style>
<rect x="0" y="0" width="100%" height="100%" fill="#ffffff"/>
<text x="24" y="34" class="title">MAcc Exit Survey 2024: Course Ranking (Higher = Better)</text>
<text x="24" y="81" class="label">#1</text>
<text x="56" y="81" class="label">ACC 6020 Advanced Financial Application</text>
<rect x="170" y="62" width="710" height="20" fill="#e5e7eb" rx="3"/>
<rect x="170" y="62" width="710" height="20" fill="#2563eb" rx="3"/>
<text x="890" y="77" class="score">100.0 (n=5)</text>
<text x="24" y="123" class="label">#2</text>
<text x="56" y="123" class="label">ACC 679R Taxation of Business Entities II</text>
<rect x="170" y="104" width="710" height="20" fill="#e5e7eb" rx="3"/>
<rect x="170" y="104" width="634" height="20" fill="#2563eb" rx="3"/>
<text x="890" y="119" class="score">89.4 (n=26)</text>
<text x="24" y="165" class="label">#3</text>
<text x="56" y="165" class="label">ACC 6400 Advanced Tax Business Entities</text>
<rect x="170" y="146" width="710" height="20" fill="#e5e7eb" rx="3"/>
<rect x="170" y="146" width="585" height="20" fill="#2563eb" rx="3"/>
<text x="890" y="161" class="score">82.5 (n=55)</text>
<text x="24" y="207" class="label">#4</text>
<text x="56" y="207" class="label">ACC 6600 Business Law for Accountants (if taken as an elective)</text>
<rect x="170" y="188" width="710" height="20" fill="#e5e7eb" rx="3"/>
<rect x="170" y="188" width="580" height="20" fill="#2563eb" rx="3"/>
<text x="890" y="203" class="score">81.8 (n=11)</text>
<text x="24" y="249" class="label">#5</text>
<text x="56" y="249" class="label">ACC 6410 Tax Research &amp; Procedure</text>
<rect x="170" y="230" width="710" height="20" fill="#e5e7eb" rx="3"/>
<rect x="170" y="230" width="576" height="20" fill="#2563eb" rx="3"/>
<text x="890" y="245" class="score">81.2 (n=4)</text>
<text x="24" y="291" class="label">#6</text>
<text x="56" y="291" class="label">ACC 6150 Information Systems Audit</text>
<rect x="170" y="272" width="710" height="20" fill="#e5e7eb" rx="3"/>
<rect x="170" y="272" width="557" height="20" fill="#2563eb" rx="3"/>
<text x="890" y="287" class="score">78.6 (n=28)</text>
<text x="24" y="333" class="label">#7</text>
<text x="56" y="333" class="label">ACC 6250 Financial Reporting and Analysis</text>
<rect x="170" y="314" width="710" height="20" fill="#e5e7eb" rx="3"/>
<rect x="170" y="314" width="502" height="20" fill="#2563eb" rx="3"/>
<text x="890" y="329" class="score">70.8 (n=24)</text>
<text x="24" y="375" class="label">#8</text>
<text x="56" y="375" class="label">ACC 6300 Data Analytics</text>
<rect x="170" y="356" width="710" height="20" fill="#e5e7eb" rx="3"/>
<rect x="170" y="356" width="484" height="20" fill="#2563eb" rx="3"/>
<text x="890" y="371" class="score">68.2 (n=55)</text>
<text x="24" y="417" class="label">#9</text>
<text x="56" y="417" class="label">ACC 6350 Mgmt Control Sys (if taken as an elective)</text>
<rect x="170" y="398" width="710" height="20" fill="#e5e7eb" rx="3"/>
<rect x="170" y="398" width="477" height="20" fill="#2563eb" rx="3"/>
<text x="890" y="413" class="score">67.3 (n=13)</text>
<text x="24" y="459" class="label">#10</text>
<text x="56" y="459" class="label">ACC 6140 Fraud Examination &amp; Forensic Accounting</text>
<rect x="170" y="440" width="710" height="20" fill="#e5e7eb" rx="3"/>
<rect x="170" y="440" width="476" height="20" fill="#2563eb" rx="3"/>
<text x="890" y="455" class="score">67.1 (n=19)</text>
<text x="24" y="501" class="label">#11</text>
<text x="56" y="501" class="label">ACC 6560 Financial Theory &amp; Research I</text>
<rect x="170" y="482" width="710" height="20" fill="#e5e7eb" rx="3"/>
<rect x="170" y="482" width="401" height="20" fill="#2563eb" rx="3"/>
<text x="890" y="497" class="score">56.6 (n=55)</text>
<text x="24" y="543" class="label">#12</text>
<text x="56" y="543" class="label">ACC 6060 Professionalism and Leadership</text>
<rect x="170" y="524" width="710" height="20" fill="#e5e7eb" rx="3"/>
<rect x="170" y="524" width="382" height="20" fill="#2563eb" rx="3"/>
<text x="890" y="539" class="score">53.9 (n=55)</text>
<text x="24" y="585" class="label">#13</text>
<text x="56" y="585" class="label">ACC 6510 Financial Audit</text>
<rect x="170" y="566" width="710" height="20" fill="#e5e7eb" rx="3"/>
<rect x="170" y="566" width="371" height="20" fill="#2563eb" rx="3"/>
<text x="890" y="581" class="score">52.3 (n=55)</text>
<text x="24" y="627" class="label">#14</text>
<text x="56" y="627" class="label">ACC 6600 Business Law for Accountants</text>
<rect x="170" y="608" width="710" height="20" fill="#e5e7eb" rx="3"/>
<rect x="170" y="608" width="346" height="20" fill="#2563eb" rx="3"/>
<text x="890" y="623" class="score">48.9 (n=55)</text>
<text x="24" y="669" class="label">#15</text>
<text x="56" y="669" class="label">ACC 6350 Management Control Systems</text>
<rect x="170" y="650" width="710" height="20" fill="#e5e7eb" rx="3"/>
<rect x="170" y="650" width="343" height="20" fill="#2563eb" rx="3"/>
<text x="890" y="665" class="score">48.4 (n=55)</text>
<text x="24" y="711" class="label">#16</text>
<text x="56" y="711" class="label">ACC 6540 Professional Ethics</text>
<rect x="170" y="692" width="710" height="20" fill="#e5e7eb" rx="3"/>
<rect x="170" y="692" width="279" height="20" fill="#2563eb" rx="3"/>
<text x="890" y="707" class="score">39.3 (n=55)</text>
</svg>